<?xml version="1.0" standalone="no"?>
<!DOCTYPE svg PUBLIC "-//W3C//DTD SVG 20010904//EN"
 "http://www.w3.org/TR/2001/REC-SVG-20010904/DTD/svg10.dtd">
<svg version="1.0" xmlns="http://www.w3.org/2000/svg"
 width="107.000000pt" height="107.000000pt" viewBox="0 0 107.000000 107.000000"
 preserveAspectRatio="xMidYMid meet">
<metadata>
Created by potrace 1.14, written by Peter Selinger 2001-2017
</metadata>
<g transform="translate(0.000000,107.000000) scale(0.100000,-0.100000)"
fill="#000000" stroke="none">
<path d="M670 1030 c0 -33 -3 -40 -20 -40 -17 0 -20 -7 -20 -45 0 -45 0 -45
-35 -45 l-35 0 0 -230 0 -230 -130 0 -130 0 0 -220 c0 -140 4 -220 10 -220 6
0 10 77 10 210 l0 210 120 0 120 0 0 -210 c0 -133 4 -210 10 -210 7 0 10 153
10 440 l0 440 220 0 220 0 0 -440 c0 -287 3 -440 10 -440 7 0 10 157 10 450
l0 450 -35 0 c-35 0 -35 0 -35 45 0 38 -3 45 -20 45 -17 0 -20 7 -20 40 l0 40
-130 0 -130 0 0 -40z m240 -10 l0 -30 -110 0 -110 0 0 30 0 30 110 0 110 0 0
-30z m40 -85 l0 -35 -150 0 -150 0 0 35 0 35 150 0 150 0 0 -35z"/>
<path d="M670 765 c0 -19 5 -35 10 -35 6 0 10 11 10 25 0 20 5 25 25 25 14 0
25 5 25 10 0 6 -16 10 -35 10 -33 0 -35 -2 -35 -35z"/>
<path d="M770 765 c0 -19 5 -35 10 -35 6 0 10 11 10 25 0 20 5 25 25 25 14 0
25 5 25 10 0 6 -16 10 -35 10 -33 0 -35 -2 -35 -35z"/>
<path d="M870 765 c0 -19 5 -35 10 -35 6 0 10 11 10 25 0 20 5 25 25 25 14 0
25 5 25 10 0 6 -16 10 -35 10 -33 0 -35 -2 -35 -35z"/>
<path d="M670 655 c0 -19 5 -35 10 -35 6 0 10 11 10 25 0 20 5 25 25 25 14 0
25 5 25 10 0 6 -16 10 -35 10 -33 0 -35 -2 -35 -35z"/>
<path d="M770 655 c0 -19 5 -35 10 -35 6 0 10 11 10 25 0 20 5 25 25 25 14 0
25 5 25 10 0 6 -16 10 -35 10 -33 0 -35 -2 -35 -35z"/>
<path d="M870 655 c0 -19 5 -35 10 -35 6 0 10 11 10 25 0 20 5 25 25 25 14 0
25 5 25 10 0 6 -16 10 -35 10 -33 0 -35 -2 -35 -35z"/>
<path d="M670 265 c0 -170 4 -265 10 -265 6 0 10 95 10 265 0 170 -4 265 -10
265 -6 0 -10 -95 -10 -265z"/>
<path d="M750 265 c0 -170 4 -265 10 -265 6 0 10 95 10 265 0 170 -4 265 -10
265 -6 0 -10 -95 -10 -265z"/>
<path d="M830 265 c0 -170 4 -265 10 -265 6 0 10 95 10 265 0 170 -4 265 -10
265 -6 0 -10 -95 -10 -265z"/>
<path d="M910 265 c0 -170 4 -265 10 -265 6 0 10 95 10 265 0 170 -4 265 -10
265 -6 0 -10 -95 -10 -265z"/>
<path d="M87 430 c-75 -59 -75 -254 0 -328 25 -25 33 -42 33 -67 0 -19 5 -35
10 -35 6 0 10 18 10 41 0 32 6 46 25 61 36 28 59 115 52 194 -6 67 -17 95 -50
132 -25 27 -47 28 -80 2z"/>
<path d="M360 335 c0 -19 5 -35 10 -35 6 0 10 11 10 25 0 20 5 25 25 25 14 0
25 5 25 10 0 6 -16 10 -35 10 -33 0 -35 -2 -35 -35z"/>
<path d="M460 335 c0 -19 5 -35 10 -35 6 0 10 11 10 25 0 20 5 25 25 25 14 0
25 5 25 10 0 6 -16 10 -35 10 -33 0 -35 -2 -35 -35z"/>
<path d="M360 235 c0 -19 5 -35 10 -35 6 0 10 11 10 25 0 20 5 25 25 25 14 0
25 5 25 10 0 6 -16 10 -35 10 -33 0 -35 -2 -35 -35z"/>
<path d="M460 235 c0 -19 5 -35 10 -35 6 0 10 11 10 25 0 20 5 25 25 25 14 0
25 5 25 10 0 6 -16 10 -35 10 -33 0 -35 -2 -35 -35z"/>
<path d="M360 135 c0 -19 5 -35 10 -35 6 0 10 11 10 25 0 20 5 25 25 25 14 0
25 5 25 10 0 6 -16 10 -35 10 -33 0 -35 -2 -35 -35z"/>
<path d="M460 135 c0 -19 5 -35 10 -35 6 0 10 11 10 25 0 20 5 25 25 25 14 0
25 5 25 10 0 6 -16 10 -35 10 -33 0 -35 -2 -35 -35z"/>
<path d="M360 35 c0 -19 5 -35 10 -35 6 0 10 11 10 25 0 20 5 25 25 25 14 0
25 5 25 10 0 6 -16 10 -35 10 -33 0 -35 -2 -35 -35z"/>
<path d="M460 35 c0 -19 5 -35 10 -35 6 0 10 11 10 25 0 20 5 25 25 25 14 0
25 5 25 10 0 6 -16 10 -35 10 -33 0 -35 -2 -35 -35z"/>
</g>
</svg>
